<svg height="359pt" preserveAspectRatio="xMidYMid meet" viewBox="0 0 359 359" width="359pt" xmlns="http://www.w3.org/2000/svg"><g transform="matrix(.1 0 0 -.1 0 359)"><path d="m1750 3576c0-8-27-82-60-164-86-212-103-305-104-552 0-212 10-296 65-520 32-131 143-471 134-410-3 19-14 86-25 149-96 552-71 963 63 1038 31 17 104 16 166-3 29-8 54-14 55-12s19 27 40 56c20 30 36 55 34 57-2 1-28 15-58 30-83 42-166 133-225 248-34 66-56 97-67 97-10 0-18-7-18-14z"/><path d="m2375 3374c-254-135-396-356-406-634l-3-65 75-26c317-112 505-298 603-599 11-36 24-66 29-68 4-1 46-2 93-2h86l-5 26c-3 17 11 56 43 122 84 170 116 318 107 492-6 109-34 236-68 305-11 22-17 32-14 22 30-110 31-290 1-402-18-69-94-226-129-269l-24-30-7 87c-13 156-70 313-172 467-54 83-234 270-305 318l-47 31-27-61-28-62 39-30c75-59 157-142 200-202s104-178 104-202c0-6-37 17-82 53-75 59-177 117-281 159l-38 16 6 57c21 178 80 299 212 431 51 50 92 92 90 92-1 0-25-12-52-26z"/><path d="m820 2989c-66-11-209-54-230-70-13-9-13-10 1-6 122 39 310 34 446-11 85-29 182-79 233-120l23-19-84-6c-220-17-440-124-630-305-85-80-179-193-179-214 0-5 26-21 57-35l56-26 30 39c17 21 69 77 117 124 68 67 107 96 179 133 51 26 99 47 107 47s-9-30-45-74c-67-85-108-153-146-246-15-36-31-69-35-74-12-13-151 10-231 38-94 33-196 103-279 194-39 42-68 68-64 57 24-63 99-170 170-242 68-67 97-89 175-126 103-50 196-74 304-79l69-3 38 103c77 215 186 357 358 467 76 48 185 99 253 117l47 12v94 94l-26-5c-18-3-52 9-109 38-193 98-411 136-605 104z"/><path d="m1730 2781v-88l102-6c57-3 104-5 105-4s5 41 9 88l7 86-33 6c-18 4-68 7-111 7h-79z"/><path d="m299 2068c-31-67-126-163-206-208l-62-35-1-48c0-37 4-49 18-54 9-3 41-17 71-30 180-80 321-107 561-108 263 0 435 31 784 142 181 58 215 78 83 49-108-24-325-54-482-67-334-28-600 20-644 117-16 35-14 101 5 163 8 29 14 54 12 55s-27 19-56 39c-28 20-54 37-55 37-2 0-14-24-28-52z"/><path d="m682 1945c-4-5-8-56-10-112l-4-103h91 91v59c0 32 3 78 6 103l6 45-87 9c-59 7-89 6-93-1z"/><path d="m2660 1949c-128-15-286-48-444-94-171-50-339-108-286-100 19 3 100 17 180 30 536 91 933 64 1007-68 17-30 16-104-2-163-8-27-15-50-15-50 0-5 112-85 115-82 1 1 15 28 30 58 42 83 133 166 248 225 57 29 96 55 95 63-4 18-310 139-395 157-161 34-367 43-533 24z"/><path d="m2687 1708c-3-57-5-104-4-105s34-4 72-8c39-3 77-8 86-11 20-6 29 38 29 149v77h-89-88z"/><path d="m1751 1635c0-5 10-68 23-140 45-244 60-397 60-620-1-183-3-220-22-289-37-134-77-176-165-176-25 0-68 7-96 17-28 9-53 14-54 12-38-52-78-112-75-114 2-1 28-15 57-30 70-35 156-122 201-203l35-62 49 2 49 3 49 122c73 183 91 286 92 523 0 212-10 296-65 520-29 118-136 456-138 435z"/><path d="m2675 1570c-3-4-19-48-36-96-38-108-58-149-116-236-104-156-307-299-496-350l-47-12v-94-94l26 5c17 3 56-11 122-44 53-26 142-61 197-76 88-24 117-27 245-27 109 0 162 4 215 18 73 19 208 67 203 71-2 2-37-6-78-17-100-26-281-21-385 12-77 24-236 104-260 130-14 16-9 18 69 24 220 18 437 123 627 304 85 80 179 193 179 214 0 5-26 21-57 35l-56 26-30-39c-17-21-69-77-117-124-68-67-107-96-179-133-51-26-99-47-107-47s13 34 51 82c59 75 117 177 159 281 17 43 26 44 138 23 148-28 250-86 370-207 48-49 84-81 81-71-23 60-99 168-169 239-67 67-98 89-175 127-59 28-124 50-174 60-96 18-194 26-200 16z"/><path d="m693 1533c4-20-3-43-23-79-48-83-99-226-116-326-28-158-7-360 52-509 9-22 18-39 19-37 2 2-3 32-11 68-40 189 3 404 115 575l45 70 8-85c17-174 93-366 207-517 65-87 201-221 272-270l47-32 27 61 28 62-39 30c-75 59-157 142-200 202s-104 178-104 202c0 6 37-17 82-53 75-59 184-121 281-159l38-16-6-57c-21-178-80-299-211-430-101-100-93-105 36-22 198 126 320 341 331 579l4 74-40 14c-270 95-421 205-538 393-46 74-102 202-113 259l-6 30h-95-95z"/><path d="m1594 778c-6-60-6-92 1-96 5-4 56-8 113-10l102-4v91 91h-67c-38 0-84 4-104 9l-36 8z"/></g></svg>